<svg width="41" height="44" viewBox="0 0 41 44" fill="none" xmlns="http://www.w3.org/2000/svg">
<path d="M40.5676 0L37.9676 0.866666C33.5117 2.41485 28.7533 2.88994 24.0793 2.25333C19.1677 1.49112 14.1406 2.16844 9.60592 4.20333C7.20196 5.22697 5.09222 6.83565 3.46878 8.88292C1.84535 10.9302 0.759782 13.351 0.310922 15.925C-0.145665 18.4003 -0.0989588 20.9422 0.448253 23.3991C0.995465 25.856 2.03197 28.1774 3.49592 30.225C3.36592 30.68 3.23592 31.135 3.12759 31.59C2.24758 35.3319 1.81124 39.1644 1.82759 43.0083H6.16092C6.36459 39.862 6.79178 36.7341 7.43926 33.6483C10.4454 35.2716 13.8165 36.0995 17.2326 36.0533C20.4186 36.0511 23.5719 35.4102 26.5059 34.1683C42.9943 27.1267 40.8276 3.705 40.8276 2.73L40.5676 0ZM24.8159 30.1817C19.1609 32.5867 12.4009 32.175 8.60926 29.2067C9.25009 27.0639 10.1295 24.9999 11.2309 23.0533C12.0872 21.6524 13.0973 20.3515 14.2426 19.175C15.4128 17.9859 16.7308 16.9519 18.1643 16.0983C21.1262 14.3272 24.4112 13.1635 27.8276 12.675V10.5083C23.8968 10.3723 19.9901 11.1744 16.4309 12.8483C12.7918 14.624 9.70564 17.3581 7.50426 20.7567C6.68779 22.0547 5.96377 23.4086 5.33759 24.8083C4.33338 22.2394 4.04873 19.4453 4.51426 16.7267C4.81927 14.8233 5.60387 13.029 6.79413 11.5127C7.98439 9.99647 9.54111 8.80824 11.3176 8.06C13.9081 6.84918 16.7348 6.2276 19.5943 6.24C20.9376 6.24 22.2593 6.37 23.6459 6.47833C27.9886 7.03864 32.3978 6.78144 36.6459 5.72C36.4943 11.7 35.4109 25.675 24.8159 30.1817Z" fill="#449A8B"/>
</svg>
