<svg width="328" height="58" viewBox="0 0 328 58" fill="none" xmlns="http://www.w3.org/2000/svg">
<path d="M94.9064 10.4745C94.9064 11.8479 94.5789 13.1355 93.9238 14.3372C93.293 15.5389 92.2862 16.5077 90.9032 17.2434C89.5446 17.9792 87.822 18.347 85.7355 18.347H81.4775V28.206H76.3826V2.52846H85.7355C87.7007 2.52846 89.3747 2.87181 90.7577 3.55851C92.1406 4.2452 93.1717 5.18941 93.851 6.39113C94.5546 7.59286 94.9064 8.95399 94.9064 10.4745ZM85.5171 14.1901C86.9243 14.1901 87.9676 13.8712 88.6469 13.2336C89.3262 12.5714 89.6659 11.6517 89.6659 10.4745C89.6659 7.97299 88.283 6.72222 85.5171 6.72222H81.4775V14.1901H85.5171Z" fill="white"/>
<path d="M103.619 24.1227H111.989V28.206H98.5238V2.52846H103.619V24.1227Z" fill="white"/>
<path d="M130.804 23.3133H120.686L119.012 28.206H113.663L122.797 2.49167H128.729L137.864 28.206H132.478L130.804 23.3133ZM129.421 19.1931L125.745 8.45123L122.069 19.1931H129.421Z" fill="white"/>
<path d="M163.004 28.206H157.91L146.373 10.5849V28.206H141.278V2.49167H146.373L157.91 20.1496V2.49167H163.004V28.206Z" fill="white"/>
<path d="M185.326 2.52846V6.68543H178.557V28.206H173.462V6.68543H166.693V2.52846H185.326Z" fill="white"/>
<path d="M218.786 2.52846V28.206H213.691V17.2802H202.81V28.206H197.715V2.52846H202.81V13.0864H213.691V2.52846H218.786Z" fill="white"/>
<path d="M228.896 6.68543V13.1232H237.449V17.2066H228.896V24.0123H238.54V28.206H223.801V2.49167H238.54V6.68543H228.896Z" fill="white"/>
<path d="M258.746 23.3133H248.629L246.955 28.206H241.606L250.74 2.49167H256.672L265.807 28.206H260.421L258.746 23.3133ZM257.364 19.1931L253.688 8.45123L250.012 19.1931H257.364Z" fill="white"/>
<path d="M274.316 24.1227H282.686V28.206H269.221V2.52846H274.316V24.1227Z" fill="white"/>
<path d="M303.211 2.52846V6.68543H296.442V28.206H291.347V6.68543H284.578V2.52846H303.211Z" fill="white"/>
<path d="M328 2.52846V28.206H322.905V17.2802H312.024V28.206H306.929V2.52846H312.024V13.0864H322.905V2.52846H328Z" fill="white"/>
<path d="M54.4431 3.68161L54.0962 0L50.6276 1.16877C44.6829 3.2566 38.3348 3.8973 32.0991 3.03879C25.5466 2.01089 18.8398 2.9243 12.7901 5.66851C9.58295 7.04896 6.76834 9.21839 4.6025 11.9793C2.43667 14.7402 0.988409 18.0049 0.389582 21.4761C-0.386884 25.9603 0.00155814 30.5715 1.5169 34.8584C2.49262 32.6322 3.6328 30.4834 4.92776 28.4302C7.86516 24.0615 11.9353 20.5942 16.6924 18.4081C21.2752 16.293 26.2844 15.2923 31.3186 15.4861C26.5261 16.2268 21.9387 17.9683 17.8486 20.5995C15.8757 21.8526 14.069 23.3549 12.4721 25.07C10.9449 26.7844 9.5984 28.6547 8.45425 30.6509C6.3052 34.8234 4.77605 39.2932 3.91607 43.9164C2.9891 48.5544 2.48595 53.2688 2.41298 58H8.1941C8.46581 53.7569 9.03573 49.5387 9.89953 45.3773C13.91 47.5664 18.4075 48.6829 22.9649 48.6207C27.2154 48.6177 31.4222 47.7533 35.3365 46.0786C57.3337 36.5824 54.4431 4.99647 54.4431 3.68161Z" fill="white"/>
<path d="M86.8932 42.6623C86.552 41.8691 86.0289 41.2483 85.3238 40.8C84.6301 40.3401 83.8112 40.1102 82.8673 40.1102C81.9802 40.1102 81.1841 40.3171 80.479 40.731C79.7739 41.1449 79.2167 41.7369 78.8072 42.5071C78.3978 43.2659 78.1931 44.1511 78.1931 45.1627C78.1931 46.1744 78.3978 47.0653 78.8072 47.8356C79.2167 48.6058 79.7739 49.1978 80.479 49.6117C81.1841 50.0256 81.9802 50.2325 82.8673 50.2325C83.6975 50.2325 84.4424 50.0543 85.102 49.6979C85.773 49.3301 86.3075 48.8127 86.7056 48.146C87.115 47.4677 87.3481 46.6802 87.405 45.7835H82.3896V44.8006H88.6674V45.6801C88.6105 46.7377 88.3262 47.6976 87.8144 48.5598C87.3026 49.4105 86.6146 50.083 85.7503 50.5774C84.8973 51.0717 83.9363 51.3189 82.8673 51.3189C81.7641 51.3189 80.7633 51.0602 79.8649 50.5429C78.9664 50.0141 78.2557 49.2841 77.7325 48.3529C77.2207 47.4102 76.9649 46.3468 76.9649 45.1627C76.9649 43.9786 77.2207 42.921 77.7325 41.9898C78.2557 41.0471 78.9664 40.3171 79.8649 39.7998C80.7633 39.271 81.7641 39.0066 82.8673 39.0066C84.141 39.0066 85.2556 39.3285 86.2109 39.9723C87.1662 40.616 87.8599 41.5127 88.2921 42.6623H86.8932Z" fill="white"/>
<path d="M97.7637 48.3356H92.3389L91.2983 51.1982H90.036L94.386 39.2997H95.7337L100.067 51.1982H98.8043L97.7637 48.3356ZM97.4055 47.3355L95.0513 40.8172L92.6972 47.3355H97.4055Z" fill="white"/>
<path d="M108.329 51.1982L105.378 46.1629H103.177V51.1982H101.983V39.1445H105.566C106.896 39.1445 107.903 39.4664 108.585 40.1102C109.279 40.754 109.626 41.599 109.626 42.6451C109.626 43.5188 109.375 44.266 108.875 44.8868C108.386 45.4961 107.658 45.8927 106.691 46.0767L109.762 51.1982H108.329ZM103.177 45.18H105.583C106.515 45.18 107.215 44.9501 107.681 44.4902C108.159 44.0304 108.397 43.4153 108.397 42.6451C108.397 41.8519 108.17 41.2426 107.715 40.8172C107.26 40.3804 106.544 40.1619 105.566 40.1619H103.177V45.18Z" fill="white"/>
<path d="M115.527 39.1445C116.846 39.1445 117.977 39.386 118.921 39.8688C119.865 40.3516 120.587 41.0471 121.088 41.9553C121.588 42.8635 121.838 43.9441 121.838 45.1972C121.838 46.4388 121.588 47.5137 121.088 48.4219C120.587 49.3186 119.865 50.0083 118.921 50.4912C117.977 50.9625 116.846 51.1982 115.527 51.1982H111.995V39.1445H115.527ZM115.527 50.198C117.187 50.198 118.449 49.7612 119.314 48.8875C120.189 48.0023 120.627 46.7722 120.627 45.1972C120.627 43.6108 120.189 42.3749 119.314 41.4897C118.449 40.593 117.187 40.1447 115.527 40.1447H113.189V50.198H115.527Z" fill="white"/>
<path d="M125.234 40.1275V44.6282H129.755V45.6283H125.234V50.198H130.267V51.1982H124.04V39.1273H130.267V40.1275H125.234Z" fill="white"/>
<path d="M141.61 51.1982H140.415L133.814 41.0586V51.1982H132.62V39.1445H133.814L140.415 49.2668V39.1445H141.61V51.1982Z" fill="white"/>
<path d="M145.508 39.1445V51.1982H144.314V39.1445H145.508Z" fill="white"/>
<path d="M157.203 51.1982H156.009L149.407 41.0586V51.1982H148.213V39.1445H149.407L156.009 49.2668V39.1445H157.203V51.1982Z" fill="white"/>
<path d="M169.29 42.6623C168.949 41.8691 168.425 41.2483 167.72 40.8C167.027 40.3401 166.208 40.1102 165.264 40.1102C164.377 40.1102 163.581 40.3171 162.876 40.731C162.171 41.1449 161.613 41.7369 161.204 42.5071C160.794 43.2659 160.59 44.1511 160.59 45.1627C160.59 46.1744 160.794 47.0653 161.204 47.8356C161.613 48.6058 162.171 49.1978 162.876 49.6117C163.581 50.0256 164.377 50.2325 165.264 50.2325C166.094 50.2325 166.839 50.0543 167.499 49.6979C168.17 49.3301 168.704 48.8127 169.102 48.146C169.512 47.4677 169.745 46.6802 169.802 45.7835H164.786V44.8006H171.064V45.6801C171.007 46.7377 170.723 47.6976 170.211 48.5598C169.699 49.4105 169.011 50.083 168.147 50.5774C167.294 51.0717 166.333 51.3189 165.264 51.3189C164.161 51.3189 163.16 51.0602 162.261 50.5429C161.363 50.0141 160.652 49.2841 160.129 48.3529C159.617 47.4102 159.361 46.3468 159.361 45.1627C159.361 43.9786 159.617 42.921 160.129 41.9898C160.652 41.0471 161.363 40.3171 162.261 39.7998C163.16 39.271 164.161 39.0066 165.264 39.0066C166.538 39.0066 167.652 39.3285 168.607 39.9723C169.563 40.616 170.256 41.5127 170.689 42.6623H169.29Z" fill="white"/>
<path d="M179.127 39.1445V51.1982H177.933V39.1445H179.127Z" fill="white"/>
<path d="M190.821 51.1982H189.627L183.025 41.0586V51.1982H181.831V39.1445H183.025L189.627 49.2668V39.1445H190.821V51.1982Z" fill="white"/>
<path d="M201.738 39.1445C203.057 39.1445 204.189 39.386 205.133 39.8688C206.077 40.3516 206.799 41.0471 207.299 41.9553C207.8 42.8635 208.05 43.9441 208.05 45.1972C208.05 46.4388 207.8 47.5137 207.299 48.4219C206.799 49.3186 206.077 50.0083 205.133 50.4912C204.189 50.9625 203.057 51.1982 201.738 51.1982H198.207V39.1445H201.738ZM201.738 50.198C203.399 50.198 204.661 49.7612 205.525 48.8875C206.401 48.0023 206.839 46.7722 206.839 45.1972C206.839 43.6108 206.401 42.3749 205.525 41.4897C204.661 40.593 203.399 40.1447 201.738 40.1447H199.401V50.198H201.738Z" fill="white"/>
<path d="M211.446 39.1445V51.1982H210.252V39.1445H211.446Z" fill="white"/>
<path d="M223.532 42.6623C223.191 41.8691 222.668 41.2483 221.963 40.8C221.269 40.3401 220.45 40.1102 219.506 40.1102C218.619 40.1102 217.823 40.3171 217.118 40.731C216.413 41.1449 215.856 41.7369 215.446 42.5071C215.037 43.2659 214.832 44.1511 214.832 45.1627C214.832 46.1744 215.037 47.0653 215.446 47.8356C215.856 48.6058 216.413 49.1978 217.118 49.6117C217.823 50.0256 218.619 50.2325 219.506 50.2325C220.337 50.2325 221.081 50.0543 221.741 49.6979C222.412 49.3301 222.947 48.8127 223.345 48.146C223.754 47.4677 223.987 46.6802 224.044 45.7835H219.029V44.8006H225.306V45.6801C225.25 46.7377 224.965 47.6976 224.453 48.5598C223.942 49.4105 223.254 50.083 222.389 50.5774C221.536 51.0717 220.575 51.3189 219.506 51.3189C218.403 51.3189 217.402 51.0602 216.504 50.5429C215.605 50.0141 214.895 49.2841 214.372 48.3529C213.86 47.4102 213.604 46.3468 213.604 45.1627C213.604 43.9786 213.86 42.921 214.372 41.9898C214.895 41.0471 215.605 40.3171 216.504 39.7998C217.402 39.271 218.403 39.0066 219.506 39.0066C220.78 39.0066 221.895 39.3285 222.85 39.9723C223.805 40.616 224.499 41.5127 224.931 42.6623H223.532Z" fill="white"/>
<path d="M228.688 39.1445V51.1982H227.494V39.1445H228.688Z" fill="white"/>
<path d="M238.369 39.1445V40.1447H235.06V51.1982H233.866V40.1447H230.539V39.1445H238.369Z" fill="white"/>
<path d="M247.164 48.3356H241.739L240.698 51.1982H239.436L243.786 39.2997H245.134L249.467 51.1982H248.204L247.164 48.3356ZM246.805 47.3355L244.451 40.8172L242.097 47.3355H246.805Z" fill="white"/>
<path d="M252.577 50.2152H256.859V51.1982H251.383V39.1445H252.577V50.2152Z" fill="white"/>
<path d="M269.693 39.1445V40.1447H264.439V44.6454H268.874V45.6456H264.439V51.1982H263.245V39.1445H269.693Z" fill="white"/>
<path d="M277.014 51.3189C275.911 51.3189 274.91 51.0602 274.012 50.5429C273.113 50.0141 272.402 49.2841 271.879 48.3529C271.367 47.4102 271.112 46.3468 271.112 45.1627C271.112 43.9786 271.367 42.921 271.879 41.9898C272.402 41.0471 273.113 40.3171 274.012 39.7998C274.91 39.271 275.911 39.0066 277.014 39.0066C278.129 39.0066 279.135 39.271 280.034 39.7998C280.932 40.3171 281.637 41.0471 282.149 41.9898C282.661 42.921 282.916 43.9786 282.916 45.1627C282.916 46.3468 282.661 47.4102 282.149 48.3529C281.637 49.2841 280.932 50.0141 280.034 50.5429C279.135 51.0602 278.129 51.3189 277.014 51.3189ZM277.014 50.267C277.901 50.267 278.697 50.0601 279.402 49.6462C280.107 49.2323 280.665 48.6403 281.074 47.8701C281.484 47.0883 281.688 46.1859 281.688 45.1627C281.688 44.1396 281.484 43.2429 281.074 42.4727C280.665 41.7024 280.107 41.1104 279.402 40.6965C278.697 40.2827 277.901 40.0757 277.014 40.0757C276.127 40.0757 275.331 40.2827 274.626 40.6965C273.921 41.1104 273.363 41.7024 272.954 42.4727C272.545 43.2429 272.34 44.1396 272.34 45.1627C272.34 46.1859 272.545 47.0883 272.954 47.8701C273.363 48.6403 273.921 49.2323 274.626 49.6462C275.331 50.0601 276.127 50.267 277.014 50.267Z" fill="white"/>
<path d="M291.447 51.1982L288.496 46.1629H286.296V51.1982H285.102V39.1445H288.684C290.014 39.1445 291.021 39.4664 291.703 40.1102C292.397 40.754 292.744 41.599 292.744 42.6451C292.744 43.5188 292.494 44.266 291.993 44.8868C291.504 45.4961 290.776 45.8927 289.81 46.0767L292.88 51.1982H291.447ZM286.296 45.18H288.701C289.634 45.18 290.333 44.9501 290.799 44.4902C291.277 44.0304 291.516 43.4153 291.516 42.6451C291.516 41.8519 291.288 41.2426 290.833 40.8172C290.378 40.3804 289.662 40.1619 288.684 40.1619H286.296V45.18Z" fill="white"/>
<path d="M306.765 39.2997V51.1982H305.571V41.6967L301.374 51.1982H300.504L296.308 41.7312V51.1982H295.114V39.2997H296.376L300.931 49.6117L305.486 39.2997H306.765Z" fill="white"/>
</svg>
