<svg width="20" height="20" viewBox="0 0 20 20" fill="none" xmlns="http://www.w3.org/2000/svg">
<path d="M18.5701 0.177654C18.4253 0.07742 18.2565 0.0172332 18.0809 0.00318505C17.9053 -0.0108631 17.7291 0.0217261 17.5701 0.0976544L0.570146 8.09765C0.396877 8.18015 0.251002 8.31075 0.149932 8.47388C0.0488615 8.63701 -0.00313554 8.82578 0.000146291 9.01765C0.00332509 9.20941 0.0615771 9.39621 0.167959 9.55578C0.27434 9.71535 0.424364 9.84097 0.600146 9.91765L6.01015 12.2877V19.0077L11.8501 14.8377L16.6101 16.9177C16.7351 16.977 16.8718 17.0078 17.0101 17.0077C17.194 17.0064 17.3739 16.9545 17.5301 16.8577C17.6678 16.7743 17.7833 16.659 17.8669 16.5214C17.9505 16.3839 17.9996 16.2282 18.0101 16.0677L19.0101 1.06765C19.0206 0.893837 18.9856 0.720292 18.9084 0.564193C18.8312 0.408094 18.7146 0.274852 18.5701 0.177654ZM16.1101 14.5177L10.8401 12.2077L14.0101 6.00765L6.36015 10.2577L3.43015 8.96765L16.9001 2.62765L16.1101 14.5177Z" fill="white"/>
</svg>
